<svg xmlns="http://www.w3.org/2000/svg" xmlns:xlink="http://www.w3.org/1999/xlink" width="17" height="17" viewBox="0 0 17 17"><defs><path id="d4hha" d="M1665.93 884.13c-.47-.46-1.05-.46-1.52 0-.36.35-.71.7-1.06 1.07-.1.1-.18.12-.3.05-.23-.13-.47-.23-.7-.37a11.03 11.03 0 0 1-2.66-2.42 6.31 6.31 0 0 1-.95-1.53c-.05-.11-.04-.19.05-.28.36-.34.7-.7 1.06-1.05.48-.5.48-1.06 0-1.56l-.84-.84-.86-.86c-.47-.46-1.06-.46-1.53 0l-1.06 1.07c-.34.32-.51.7-.55 1.17-.06.74.13 1.45.38 2.13a12.97 12.97 0 0 0 2.3 3.83 14.27 14.27 0 0 0 4.72 3.7c.83.4 1.68.7 2.61.75.64.04 1.2-.12 1.65-.62.3-.34.65-.65.97-.98.48-.49.48-1.07 0-1.55l-1.7-1.71z"/></defs><g><g transform="translate(-1653 -874)"><use fill="#fff" xlink:href="#d4hha"/></g></g></svg>