<svg xmlns="http://www.w3.org/2000/svg" xmlns:xlink="http://www.w3.org/1999/xlink" width="15" height="13" viewBox="0 0 15 13"><defs><path id="jj8ta" d="M1201.69 13310.15c-.2.09-.41.16-.63.22.26-.27.45-.59.57-.94a.19.19 0 0 0-.07-.2.22.22 0 0 0-.24-.03 5.1 5.1 0 0 1-1.46.55 2.89 2.89 0 0 0-1.94-.75c-1.54 0-2.79 1.18-2.79 2.62l.02.34a7.26 7.26 0 0 1-4.88-2.44.21.21 0 0 0-.18-.08.2.2 0 0 0-.17.1 2.5 2.5 0 0 0 .29 3.02c-.13-.04-.26-.1-.37-.16a.22.22 0 0 0-.21 0 .2.2 0 0 0-.1.17v.04c0 .94.53 1.79 1.36 2.25l-.22-.03a.21.21 0 0 0-.2.06.19.19 0 0 0-.03.2c.3.9 1.09 1.55 2.04 1.75a5.15 5.15 0 0 1-3.23.68.21.21 0 0 0-.22.13.2.2 0 0 0 .09.23 7.85 7.85 0 0 0 4.05 1.12 7.4 7.4 0 0 0 5.6-2.31 7.1 7.1 0 0 0 1.93-5c.49-.35.9-.77 1.25-1.25a.19.19 0 0 0-.02-.23.22.22 0 0 0-.24-.06z"/></defs><g><g transform="translate(-1188 -13308)"><use fill="#fff" xlink:href="#jj8ta"/></g></g></svg>