<?xml version="1.0" standalone="no"?>
<!DOCTYPE svg PUBLIC "-//W3C//DTD SVG 20010904//EN"
 "http://www.w3.org/TR/2001/REC-SVG-20010904/DTD/svg10.dtd">
<svg version="1.0" xmlns="http://www.w3.org/2000/svg"
 width="260.000000pt" height="260.000000pt" viewBox="0 0 260.000000 260.000000"
 preserveAspectRatio="xMidYMid meet">
<metadata>
Created by potrace 1.11, written by Peter Selinger 2001-2013
</metadata>
<g transform="translate(0.000000,260.000000) scale(0.100000,-0.100000)"
fill="#000000" stroke="none">
<path d="M0 1300 l0 -1300 1300 0 1300 0 0 1300 0 1300 -1300 0 -1300 0 0
-1300z m540 -30 l0 -970 -220 0 -220 0 0 970 0 970 220 0 220 0 0 -970z m1505
955 c92 -19 236 -92 307 -155 215 -191 279 -516 153 -779 -82 -170 -217 -288
-400 -348 -74 -24 -97 -27 -292 -31 l-213 -4 0 -304 0 -304 -220 0 -220 0 0
970 0 970 408 0 c318 0 422 -4 477 -15z"/>
<path d="M1600 1581 l0 -251 174 0 c171 0 175 0 227 28 170 88 166 353 -6 441
-46 24 -60 26 -222 29 l-173 4 0 -251z"/>
</g>
</svg>
